<svg xmlns="http://www.w3.org/2000/svg" version="1.1" xmlns:xlink="http://www.w3.org/1999/xlink" xmlns:svgjs="http://svgjs.dev/svgjs" width="2000" height="1500" viewBox="0 0 2000 1500"><rect width="2000" height="1500" fill="#010536"></rect><g transform="matrix(0.75,0,0,0.75,249.2500000000001,-0.7498177939077095)"><svg viewBox="0 0 280 280" data-background-color="#010536" preserveAspectRatio="xMidYMid meet" height="2000" width="2000" xmlns="http://www.w3.org/2000/svg" xmlns:xlink="http://www.w3.org/1999/xlink"><g id="tight-bounds" transform="matrix(1,0,0,1,0.13999999999998636,0.14001562499998954)"><svg viewBox="0 0 279.72 279.72" height="279.72" width="279.72"><g><svg viewBox="0 0 279.72 279.72" height="279.72" width="279.72"><g><svg viewBox="0 0 279.72 279.72" height="279.72" width="279.72"><g id="textblocktransform"><svg viewBox="0 0 279.72 279.72" height="279.72" width="279.72" id="textblock"><g><svg viewBox="0 0 279.72 279.72" height="279.72" width="279.72"><g transform="matrix(1,0,0,1,57.446704652707865,57.446704652707865)"><svg viewBox="0 0 164.8265906945843 164.8265906945843" height="164.8265906945843" width="164.8265906945843"><g><circle r="82" cx="82.41329534729215" cy="82.41329534729215" fill="#ffff00" data-fill-palette-color="accent"></circle><svg xmlns="http://www.w3.org/2000/svg" xmlns:xlink="http://www.w3.org/1999/xlink" version="1.1" x="24.72398860418764" y="24.723988604187646" viewBox="-250.70000000000002 140.98709328582086 63.39999999999998 80.01290671417914" enable-background="new -269 131 100 100" xml:space="preserve" height="115.378613486209" width="115.378613486209" class="icon-kg-0" data-fill-palette-color="quaternary" id="kg-0"><path d="M-200.1 163.7l-1-0.8c-1.2-1-3.1-0.6-3.8 0.8-0.3 0.7-0.6 7.7-0.6 8.9 0 0.2 0 0.6 0 0.7 0 1-0.9 1.8-1.9 1.6-0.8-0.1-1.4-0.9-1.4-1.7-0.1-12-3.7-20.4-10.5-26.7-4.1-3.8-9-7.2-10.5-4.6-0.4 0.7 0.2 2.2 0.9 4.1 1.4 4.3-2.9 11.2-9 18.1-5.7 6.5-12.8 14.5-12.8 26.4 0 16 15.1 30.5 31.7 30.5 16.6 0 31.7-14.5 31.7-30.5C-187.3 180.4-192.1 170.4-200.1 163.7zM-219 215.2c-7.2 0-13.1-5.9-13.1-13.1 0-3.6 1.4-6.8 3.8-9.2l7.2-8.6c1.1-1.3 3.2-1.3 4.3 0l7.2 8.6c2.3 2.4 3.8 5.6 3.8 9.2C-205.9 209.3-211.8 215.2-219 215.2z" fill="#010536" data-fill-palette-color="quaternary"></path></svg></g></svg></g><g><path d="M31.288 102.658v0c-0.659 1.842-1.586 3.425-2.78 4.747-1.192 1.316-2.615 2.221-4.27 2.714-1.655 0.493-3.504 0.414-5.549-0.239v0l1.699-4.748c1.026 0.367 1.955 0.414 2.788 0.14 0.84-0.271 1.569-0.774 2.189-1.509 0.629-0.739 1.126-1.622 1.494-2.647v0c0.351-0.981 0.535-1.905 0.551-2.769 0.014-0.859-0.143-1.597-0.471-2.215-0.323-0.615-0.819-1.043-1.491-1.283v0c-0.886-0.317-1.676-0.296-2.368 0.063-0.699 0.357-1.472 1.051-2.32 2.084v0l-3.965 4.494c-1.536 1.757-3.031 2.993-4.486 3.708-1.453 0.708-3.114 0.729-4.981 0.06v0c-2.159-0.772-3.601-2.249-4.328-4.43-0.724-2.187-0.541-4.807 0.551-7.857v0c1.065-2.975 2.581-5.029 4.549-6.16 1.96-1.127 4.214-1.36 6.763-0.698v0l-1.699 4.748c-1.114-0.199-2.127-0.022-3.039 0.53-0.912 0.552-1.644 1.601-2.196 3.146v0c-0.487 1.361-0.59 2.538-0.31 3.531 0.287 0.995 0.86 1.647 1.721 1.955v0c0.734 0.263 1.406 0.221 2.016-0.126 0.607-0.34 1.295-0.965 2.063-1.875v0l4.33-5.006c1.468-1.688 2.969-2.851 4.504-3.488 1.535-0.636 3.175-0.642 4.923-0.017v0c1.595 0.571 2.835 1.468 3.718 2.691 0.877 1.221 1.36 2.715 1.449 4.482 0.087 1.773-0.265 3.765-1.055 5.974z" fill="#fbfbf8" data-fill-palette-color="primary"></path><path d="M36.303 49.401l-6.766 7.206-3.228-3.031 15.472-16.477 3.228 3.031-6.766 7.205-0.066-1.639 18.19 17.081-3.514 3.742-18.19-17.08z" fill="#fbfbf8" data-fill-palette-color="primary"></path><path d="M98.822 34.474l-16.22 8.087-12.586-25.247 16.22-8.086 1.975 3.963-11.634 5.8 3.316 6.652 10.931-5.449 1.98 3.972-10.931 5.449 3.316 6.652 11.635-5.8z" fill="#fbfbf8" data-fill-palette-color="primary"></path><path d="M130.557 28.494l-5.163 0.33-1.798-28.152 9.934-0.635c3.167-0.202 5.686 0.422 7.558 1.872 1.871 1.444 2.898 3.598 3.081 6.463v0c0.181 2.832-0.565 5.086-2.236 6.763-1.672 1.677-4.091 2.616-7.258 2.818v0l-4.771 0.305zM129.042 4.76l0.576 9.029 4.771-0.305c1.59-0.102 2.765-0.598 3.523-1.488 0.752-0.89 1.086-1.986 1.003-3.288v0c-0.085-1.329-0.557-2.393-1.417-3.194-0.867-0.807-2.095-1.16-3.685-1.058v0z" fill="#fbfbf8" data-fill-palette-color="primary"></path><path d="M170.146 32.367l9.274-26.641 4.839 1.684-3.873 11.125 11.621 4.045 3.872-11.125 4.849 1.688-9.274 26.641-4.849-1.687 3.929-11.287-11.62-4.046-3.929 11.288z" fill="#fbfbf8" data-fill-palette-color="primary"></path><path d="M227.481 68.095l-13.272-12.342 19.21-20.658 13.272 12.342-3.015 3.242-9.52-8.853-5.062 5.444 8.944 8.317-3.022 3.25-8.944-8.318-5.062 5.443 9.521 8.854z" fill="#fbfbf8" data-fill-palette-color="primary"></path><path d="M242.037 90.922l25.86-11.271 2.241 5.141-13.319 19.799-0.157-0.36 18.445-8.039 2.047 4.696-25.86 11.271-2.084-4.78 14.112-21.036 0.33 0.758-19.563 8.527z" fill="#fbfbf8" data-fill-palette-color="primary"></path><path d="M11.82 188.896v0c-0.308-0.939-0.479-1.892-0.512-2.857-0.033-0.965 0.088-1.879 0.365-2.741 0.276-0.862 0.721-1.62 1.335-2.274 0.614-0.654 1.412-1.142 2.396-1.464v0l1.118 3.411c-0.614 0.244-1.092 0.609-1.434 1.097-0.343 0.487-0.54 1.061-0.592 1.722-0.052 0.661 0.046 1.372 0.295 2.132v0c0.366 1.118 0.909 1.91 1.628 2.375 0.727 0.469 1.483 0.575 2.269 0.318v0c0.511-0.168 0.909-0.443 1.194-0.827 0.293-0.379 0.449-0.865 0.466-1.458 0.024-0.595-0.099-1.305-0.369-2.13v0l-0.776-2.367 2.559-0.838 0.657 2.003c0.343 1.048 0.839 1.795 1.488 2.24 0.642 0.448 1.346 0.546 2.113 0.294v0c0.69-0.226 1.181-0.67 1.474-1.332 0.299-0.664 0.28-1.51-0.058-2.539v0c-0.274-0.837-0.688-1.526-1.24-2.067-0.554-0.547-1.284-0.775-2.187-0.684v0l-1.119-3.412c1.264-0.266 2.379-0.221 3.345 0.135 0.972 0.354 1.797 0.96 2.476 1.821 0.683 0.852 1.224 1.888 1.623 3.108v0c0.423 1.291 0.589 2.51 0.499 3.658-0.091 1.148-0.415 2.135-0.972 2.961-0.557 0.826-1.324 1.4-2.302 1.72v0c-0.914 0.299-1.788 0.31-2.621 0.032-0.832-0.272-1.573-0.839-2.225-1.702v0c-0.017 1.201-0.279 2.246-0.787 3.135-0.508 0.888-1.306 1.511-2.392 1.866v0c-1.054 0.346-2.084 0.354-3.091 0.026-1.004-0.322-1.908-0.942-2.711-1.86-0.808-0.91-1.445-2.077-1.912-3.502z" fill="#fbfbf8" data-fill-palette-color="primary"></path><path d="M17.772 202.765l16.68-8.651 2.8 5.399c0.879 1.695 1.31 3.358 1.292 4.988-0.021 1.624-0.473 3.12-1.355 4.485-0.879 1.357-2.172 2.479-3.879 3.364v0c-1.689 0.876-3.342 1.283-4.957 1.22-1.613-0.072-3.092-0.566-4.439-1.482-1.349-0.921-2.463-2.229-3.342-3.924v0zM34.503 200.938l-1.226-2.363-11.209 5.813 1.226 2.364c0.557 1.074 1.285 1.879 2.183 2.413 0.895 0.528 1.873 0.786 2.935 0.773 1.067-0.016 2.135-0.301 3.203-0.855v0c1.086-0.563 1.94-1.275 2.562-2.136 0.616-0.857 0.966-1.804 1.05-2.839 0.075-1.039-0.166-2.095-0.724-3.17z" fill="#fbfbf8" data-fill-palette-color="primary"></path><path d="M35.818 231.087l13.802-12.75 3.319 3.593-4.852 11.691-0.192-0.207 12.039-3.913 3.203 3.467-13.802 12.75-2.341-2.534 10.905-10.074 0.356 0.386-13.363 4.381-1.512-1.637 5.407-12.919 0.219 0.237-10.867 10.04z" fill="#fbfbf8" data-fill-palette-color="primary"></path><path d="M62.215 255.8v0c-1.364-0.971-2.354-2.125-2.971-3.463-0.616-1.338-0.794-2.81-0.534-4.415 0.25-1.604 1.003-3.289 2.258-5.053v0c1.275-1.792 2.627-3.066 4.056-3.823 1.42-0.755 2.858-1.053 4.312-0.893 1.45 0.165 2.857 0.733 4.222 1.704v0c1.364 0.971 2.359 2.124 2.984 3.46 0.622 1.342 0.809 2.812 0.563 4.411-0.252 1.595-1.001 3.269-2.249 5.022v0c-1.271 1.786-2.622 3.065-4.054 3.837-1.434 0.762-2.882 1.064-4.346 0.906-1.464-0.158-2.877-0.723-4.241-1.693zM64.01 253.277v0c1.249 0.889 2.576 1.123 3.98 0.703 1.405-0.42 2.74-1.52 4.007-3.301v0c1.22-1.715 1.8-3.307 1.741-4.777-0.056-1.476-0.708-2.658-1.958-3.547v0c-1.227-0.873-2.552-1.093-3.973-0.66-1.418 0.427-2.739 1.501-3.963 3.221v0c-1.259 1.77-1.854 3.389-1.785 4.857 0.073 1.463 0.723 2.631 1.951 3.504z" fill="#fbfbf8" data-fill-palette-color="primary"></path><path d="M76.059 263.945l8.178-16.916 5.475 2.647c1.719 0.831 3.06 1.905 4.022 3.221 0.956 1.313 1.49 2.781 1.601 4.404 0.109 1.613-0.255 3.286-1.092 5.017v0c-0.828 1.713-1.908 3.028-3.24 3.945-1.335 0.908-2.816 1.398-4.442 1.471-1.632 0.07-3.308-0.311-5.027-1.142v0zM88.365 252.463l-2.398-1.159-5.495 11.369 2.397 1.159c1.09 0.527 2.154 0.735 3.193 0.625 1.033-0.113 1.971-0.492 2.813-1.138 0.845-0.652 1.53-1.52 2.054-2.604v0c0.533-1.102 0.79-2.183 0.773-3.244-0.02-1.055-0.307-2.023-0.86-2.903-0.562-0.877-1.388-1.578-2.477-2.105z" fill="#fbfbf8" data-fill-palette-color="primary"></path><path d="M109.007 276.517l-11.571-3.446 5.364-18.007 11.57 3.446-0.844 2.832-8.293-2.47-1.413 4.746 7.79 2.32-0.843 2.832-7.791-2.32-1.411 4.736 8.294 2.47z" fill="#fbfbf8" data-fill-palette-color="primary"></path><path d="M120.687 278.298l-3.391-0.434 2.387-18.638 6.893 0.883c2.228 0.285 3.871 1.028 4.93 2.228 1.061 1.193 1.481 2.65 1.261 4.371v0c-0.217 1.694-0.989 2.985-2.316 3.872-1.327 0.888-3.104 1.189-5.332 0.903v0l-3.502-0.448zM131.792 279.72l-4.422-0.566-3.813-9.365 3.611 0.462zM122.699 262.592l-0.791 6.172 3.152 0.404c1.247 0.16 2.227-0.003 2.94-0.488 0.714-0.492 1.129-1.191 1.244-2.098v0c0.119-0.927-0.075-1.714-0.582-2.362-0.514-0.642-1.335-1.035-2.462-1.18v0z" fill="#fbfbf8" data-fill-palette-color="primary"></path><path d="M139.249 279.606l-0.764-18.774 3.729-0.152 9.08 13.046-0.262 0.01-0.545-13.393 3.416-0.139 0.764 18.774-3.466 0.141-9.668-13.829 0.554-0.022 0.578 14.199z" fill="#fbfbf8" data-fill-palette-color="primary"></path><path d="M177.185 273.606l-12.098-15.629 3.6-1.287 9.582 13.326-0.817 0.292-0.661-15.186 2.184-0.781 9.201 11.899-0.741 0.265-0.732-16.254 3.628-1.297 0.236 19.869-3.372 1.205-7.197-9.198 0.304-0.109 0.264 11.677z" fill="#fbfbf8" data-fill-palette-color="primary"></path><path d="M212.857 257.641l-10.482 5.99-9.324-16.312 10.482-5.991 1.466 2.565-7.513 4.295 2.458 4.299 7.057-4.034 1.466 2.566-7.057 4.033 2.452 4.291 7.513-4.294z" fill="#fbfbf8" data-fill-palette-color="primary"></path><path d="M225.471 247.795l-5.921 4.788-11.816-14.608 5.897-4.77c1.124-0.909 2.199-1.489 3.224-1.739 1.026-0.25 1.961-0.233 2.806 0.053 0.84 0.29 1.547 0.79 2.122 1.5v0c0.668 0.826 1.009 1.718 1.022 2.676 0.008 0.962-0.306 1.899-0.943 2.812v0c0.638-0.334 1.294-0.528 1.969-0.581 0.679-0.048 1.328 0.054 1.947 0.306 0.628 0.253 1.181 0.675 1.659 1.265v0c0.376 0.465 0.676 1.001 0.899 1.608 0.219 0.602 0.295 1.262 0.228 1.982-0.072 0.724-0.35 1.481-0.835 2.271-0.481 0.795-1.234 1.607-2.258 2.437zM217.255 244.309l3.076 3.803 3.192-2.581c0.847-0.685 1.332-1.358 1.454-2.02 0.117-0.657-0.059-1.276-0.529-1.855v0c-0.465-0.575-1.041-0.875-1.726-0.9-0.691-0.02-1.45 0.303-2.276 0.971v0zM215.395 235.578l-3.145 2.544 3.134 3.874 3.129-2.531c0.784-0.634 1.238-1.291 1.362-1.972 0.13-0.684-0.051-1.33-0.541-1.936v0c-0.469-0.58-1.045-0.88-1.726-0.899-0.686-0.025-1.423 0.282-2.213 0.92z" fill="#fbfbf8" data-fill-palette-color="primary"></path><path d="M240.735 233.135v0c-0.863 0.978-1.826 1.729-2.889 2.252-1.068 0.519-2.172 0.728-3.312 0.628-1.145-0.105-2.27-0.614-3.375-1.527v0l2.223-2.517c0.544 0.481 1.108 0.741 1.692 0.78 0.584 0.04 1.157-0.091 1.719-0.392 0.572-0.302 1.098-0.726 1.578-1.271v0c0.458-0.519 0.8-1.043 1.024-1.571 0.224-0.528 0.313-1.025 0.265-1.488-0.048-0.464-0.251-0.854-0.609-1.17v0c-0.469-0.414-0.964-0.595-1.484-0.544-0.521 0.051-1.173 0.292-1.956 0.722v0l-3.553 1.801c-1.385 0.706-2.616 1.099-3.693 1.18-1.071 0.086-2.103-0.31-3.096-1.186v0c-1.144-1.01-1.671-2.278-1.58-3.803 0.09-1.535 0.85-3.111 2.278-4.73v0c1.393-1.578 2.838-2.473 4.334-2.685 1.492-0.217 2.944 0.195 4.357 1.237v0l-2.222 2.518c-0.644-0.398-1.315-0.537-2.013-0.418-0.703 0.115-1.414 0.581-2.135 1.398v0c-0.636 0.721-0.988 1.424-1.055 2.109-0.076 0.686 0.115 1.231 0.574 1.636v0c0.388 0.343 0.814 0.48 1.276 0.414 0.458-0.062 1.04-0.279 1.746-0.652v0l3.911-2.023c1.324-0.687 2.539-1.037 3.643-1.048 1.109-0.017 2.127 0.384 3.055 1.203v0c0.847 0.748 1.391 1.609 1.633 2.585 0.237 0.971 0.166 2.017-0.212 3.136-0.383 1.115-1.091 2.257-2.124 3.426z" fill="#fbfbf8" data-fill-palette-color="primary"></path><path d="M251.661 218.221l-1.941 2.815-15.466-10.671 1.942-2.814z" fill="#fbfbf8" data-fill-palette-color="primary"></path><path d="M243.661 199.896l-2.986 5.87-2.634-1.34 6.827-13.421 2.634 1.34-2.986 5.87-0.354-1.04 14.815 7.536-1.551 3.047-14.814-7.536z" fill="#fbfbf8" data-fill-palette-color="primary"></path><path d="M267.876 182.547l-4.059 11.369-17.696-6.318 4.06-11.37 2.783 0.994-2.91 8.149 4.664 1.666 2.733-7.656 2.783 0.994-2.733 7.655 4.654 1.662 2.91-8.149z" fill="#fbfbf8" data-fill-palette-color="primary"></path><path d="M8.63 144.957c0-1.821 1.476-3.298 3.298-3.297 1.821 0 3.298 1.476 3.297 3.297 0 1.821-1.476 3.298-3.297 3.298-1.821 0-3.298-1.476-3.298-3.298z" fill="#fbfbf8" data-fill-palette-color="primary"></path><path d="M262.539 144.957c0-1.821 1.476-3.298 3.297-3.297 1.821 0 3.298 1.476 3.298 3.297 0 1.821-1.476 3.298-3.298 3.298-1.821 0-3.298-1.476-3.297-3.298z" fill="#fbfbf8" data-fill-palette-color="primary"></path></g></svg></g></svg></g></svg></g></svg></g><defs></defs></svg><rect width="279.72" height="279.72" fill="none" stroke="none" visibility="hidden"></rect></g></svg></g></svg>